<svg width="36" height="40" viewBox="0 0 36 40" fill="none" xmlns="http://www.w3.org/2000/svg">
<path d="M17.9998 20C22.886 20 27.818 16.6692 27.818 9.23077C27.818 6.78262 26.7836 4.43473 24.9423 2.70363C23.1011 0.972524 20.6038 0 17.9998 0C15.3959 0 12.8986 0.972524 11.0573 2.70363C9.21605 4.43473 8.18164 6.78262 8.18164 9.23077C8.18164 16.6692 13.1136 20 17.9998 20ZM17.9998 3.07692C19.7358 3.07692 21.4006 3.72527 22.6282 4.87934C23.8557 6.03341 24.5453 7.59867 24.5453 9.23077C24.5453 14.0477 22.0907 16.9231 17.9998 16.9231C13.9089 16.9231 11.4544 14.0477 11.4544 9.23077C11.4544 7.59867 12.144 6.03341 13.3715 4.87934C14.599 3.72527 16.2639 3.07692 17.9998 3.07692Z" fill="white"/>
<path d="M18 23.0767C7.90691 23.0767 0 27.1736 0 32.4044C0 37.3013 6.39164 39.9997 18 39.9997C29.6084 39.9997 36 37.3013 36 32.4044C36 27.1736 28.0931 23.0767 18 23.0767ZM18 36.9228C9.05236 36.9228 3.27273 35.149 3.27273 32.4044C3.27273 29.4474 9.32727 26.1536 18 26.1536C26.6727 26.1536 32.7273 29.4474 32.7273 32.4044C32.7273 35.149 26.9476 36.9228 18 36.9228Z" fill="white"/>
</svg>
