<svg width="36" height="36" viewBox="0 0 36 36" fill="none" xmlns="http://www.w3.org/2000/svg">
<path d="M14.8825 17.4199C15.1926 17.5371 15.5366 17.5263 15.8388 17.3899C16.141 17.2535 16.3766 17.0026 16.4938 16.6924C16.6109 16.3823 16.6001 16.0383 16.4637 15.7361C16.3273 15.434 16.0764 15.1984 15.7663 15.0812C14.7022 14.674 13.7697 13.9837 13.0696 13.085C12.3694 12.1863 11.9282 11.1133 11.7937 9.98195C11.6592 8.85065 11.8365 7.70409 12.3064 6.66623C12.7762 5.62837 13.5209 4.73869 14.4597 4.09336C15.3986 3.44803 16.496 3.0716 17.6333 3.00476C18.7707 2.93792 19.9046 3.18323 20.9126 3.71415C21.9206 4.24507 22.7643 5.04141 23.3525 6.01709C23.9407 6.99277 24.2511 8.11067 24.25 9.24994C24.2529 9.96046 24.1302 10.6659 23.8875 11.3337C23.7738 11.6452 23.7885 11.989 23.9283 12.2897C24.0681 12.5903 24.3217 12.8231 24.6331 12.9368C24.9446 13.0505 25.2885 13.0359 25.5891 12.896C25.8898 12.7562 26.1225 12.5027 26.2363 12.1912C26.5788 11.2485 26.7527 10.2529 26.75 9.24994C26.7511 7.65462 26.316 6.08937 25.4917 4.72346C24.6675 3.35756 23.4855 2.24297 22.0737 1.50026C20.6618 0.757537 19.0737 0.414948 17.4812 0.509537C15.8887 0.604127 14.3523 1.13229 13.0383 2.03692C11.7243 2.94155 10.6826 4.18821 10.0258 5.64208C9.36908 7.09595 9.12232 8.7017 9.31221 10.2857C9.50211 11.8697 10.1214 13.3716 11.1032 14.629C12.085 15.8865 13.3919 16.8516 14.8825 17.4199Z" fill="white"/>
<path d="M15.8248 33.0001H4.2748C4.07031 33.001 3.86857 32.953 3.68636 32.8602C3.50416 32.7674 3.34677 32.6323 3.2273 32.4664C3.117 32.3219 3.04335 32.1528 3.01265 31.9737C2.98196 31.7945 2.99513 31.6106 3.05105 31.4376C3.8675 28.9973 5.34954 26.8336 7.33003 25.1906C9.31052 23.5476 11.7107 22.4906 14.2598 22.1389C14.5883 22.0931 14.8852 21.9187 15.0852 21.6541C15.2852 21.3894 15.3718 21.0562 15.3261 20.7276C15.2803 20.3991 15.1059 20.1022 14.8413 19.9022C14.5766 19.7023 14.2433 19.6156 13.9148 19.6614C10.902 20.0796 8.06593 21.3309 5.72618 23.2745C3.38643 25.218 1.63604 27.7764 0.672303 30.6614C0.494766 31.2098 0.450577 31.7927 0.543405 32.3616C0.636232 32.9305 0.863399 33.4691 1.20605 33.9326C1.55822 34.4169 2.01966 34.8112 2.55288 35.0835C3.0861 35.3559 3.67605 35.4986 4.2748 35.5001H15.8248C16.1563 35.5001 16.4743 35.3684 16.7087 35.134C16.9431 34.8996 17.0748 34.5816 17.0748 34.2501C17.0748 33.9186 16.9431 33.6007 16.7087 33.3662C16.4743 33.1318 16.1563 33.0001 15.8248 33.0001Z" fill="white"/>
<path d="M25.5 15.5C23.5222 15.5 21.5888 16.0865 19.9443 17.1853C18.2998 18.2841 17.0181 19.8459 16.2612 21.6732C15.5043 23.5004 15.3063 25.5111 15.6922 27.4509C16.078 29.3907 17.0304 31.1725 18.4289 32.5711C19.8275 33.9696 21.6093 34.922 23.5491 35.3079C25.4889 35.6937 27.4996 35.4957 29.3268 34.7388C31.1541 33.9819 32.7159 32.7002 33.8147 31.0557C34.9135 29.4112 35.5 27.4778 35.5 25.5C35.497 22.8487 34.4425 20.3069 32.5678 18.4322C30.6931 16.5575 28.1513 15.503 25.5 15.5ZM25.5 33C24.0166 33 22.5666 32.5601 21.3332 31.736C20.0999 30.9119 19.1386 29.7406 18.5709 28.3701C18.0032 26.9997 17.8547 25.4917 18.1441 24.0368C18.4335 22.582 19.1478 21.2456 20.1967 20.1967C21.2456 19.1478 22.582 18.4335 24.0368 18.1441C25.4917 17.8547 26.9997 18.0032 28.3701 18.5709C29.7406 19.1386 30.9119 20.0999 31.736 21.3332C32.5601 22.5666 33 24.0166 33 25.5C32.998 27.4885 32.2072 29.395 30.8011 30.8011C29.395 32.2072 27.4885 32.998 25.5 33Z" fill="white"/>
<path d="M26.125 24.25H24.875C24.7092 24.25 24.5502 24.1842 24.433 24.0669C24.3158 23.9497 24.25 23.7908 24.25 23.625C24.25 23.4592 24.3158 23.3003 24.433 23.1831C24.5502 23.0658 24.7092 23 24.875 23H26.75C27.0815 23 27.3994 22.8683 27.6338 22.6339C27.8683 22.3995 28 22.0815 28 21.75C28 21.4185 27.8683 21.1005 27.6338 20.8661C27.3994 20.6317 27.0815 20.5 26.75 20.5C26.75 20.1685 26.6183 19.8505 26.3838 19.6161C26.1494 19.3817 25.8315 19.25 25.5 19.25C25.1684 19.25 24.8505 19.3817 24.6161 19.6161C24.3816 19.8505 24.25 20.1685 24.25 20.5V20.5638C23.4918 20.7193 22.8184 21.1506 22.36 21.7741C21.9017 22.3977 21.691 23.1691 21.7688 23.9391C21.8466 24.7091 22.2073 25.4228 22.7811 25.9421C23.3549 26.4614 24.1011 26.7493 24.875 26.75H26.125C26.2907 26.75 26.4497 26.8158 26.5669 26.9331C26.6841 27.0503 26.75 27.2092 26.75 27.375C26.75 27.5408 26.6841 27.6997 26.5669 27.8169C26.4497 27.9342 26.2907 28 26.125 28H24.25C23.9184 28 23.6005 28.1317 23.3661 28.3661C23.1316 28.6005 23 28.9185 23 29.25C23 29.5815 23.1316 29.8995 23.3661 30.1339C23.6005 30.3683 23.9184 30.5 24.25 30.5C24.25 30.8315 24.3816 31.1495 24.6161 31.3839C24.8505 31.6183 25.1684 31.75 25.5 31.75C25.8315 31.75 26.1494 31.6183 26.3838 31.3839C26.6183 31.1495 26.75 30.8315 26.75 30.5V30.4362C27.5081 30.2807 28.1815 29.8494 28.6399 29.2259C29.0982 28.6023 29.3089 27.8309 29.2311 27.0609C29.1533 26.2909 28.7926 25.5772 28.2188 25.0579C27.645 24.5386 26.8989 24.2507 26.125 24.25Z" fill="white"/>
</svg>
