<svg width="40" height="40" viewBox="0 0 40 40" fill="none" xmlns="http://www.w3.org/2000/svg">
<g clip-path="url(#clip0_300_4610)">
<path d="M20.625 17.5H16.875C16.5435 17.5 16.2255 17.6317 15.9911 17.8661C15.7567 18.1005 15.625 18.4185 15.625 18.75C15.625 19.0815 15.7567 19.3995 15.9911 19.6339C16.2255 19.8683 16.5435 20 16.875 20H18.75C18.75 20.3315 18.8817 20.6495 19.1161 20.8839C19.3505 21.1183 19.6685 21.25 20 21.25C20.3315 21.25 20.6495 21.1183 20.8839 20.8839C21.1183 20.6495 21.25 20.3315 21.25 20V19.9438C22.1725 19.7822 23.0011 19.2814 23.573 18.5398C24.1448 17.7982 24.4185 16.8694 24.3401 15.9362C24.2618 15.003 23.8371 14.1328 23.1496 13.4969C22.462 12.8611 21.5615 12.5054 20.625 12.5H19.375C19.0435 12.5 18.7255 12.3683 18.4911 12.1339C18.2567 11.8995 18.125 11.5815 18.125 11.25C18.125 10.9185 18.2567 10.6005 18.4911 10.3661C18.7255 10.1317 19.0435 10 19.375 10H23.125C23.4565 10 23.7745 9.8683 24.0089 9.63388C24.2433 9.39946 24.375 9.08152 24.375 8.75C24.375 8.41848 24.2433 8.10054 24.0089 7.86612C23.7745 7.6317 23.4565 7.5 23.125 7.5H21.25C21.25 7.16848 21.1183 6.85054 20.8839 6.61612C20.6495 6.3817 20.3315 6.25 20 6.25C19.6685 6.25 19.3505 6.3817 19.1161 6.61612C18.8817 6.85054 18.75 7.16848 18.75 7.5V7.55625C17.8275 7.71776 16.9989 8.21858 16.427 8.96021C15.8552 9.70184 15.5815 10.6306 15.6599 11.5638C15.7382 12.497 16.1629 13.3672 16.8504 14.0031C17.538 14.6389 18.4385 14.9946 19.375 15H20.625C20.9565 15 21.2745 15.1317 21.5089 15.3661C21.7433 15.6005 21.875 15.9185 21.875 16.25C21.875 16.5815 21.7433 16.8995 21.5089 17.1339C21.2745 17.3683 20.9565 17.5 20.625 17.5Z" fill="white"/>
<path d="M36.25 12.5001H32.4375C32.128 9.41653 30.684 6.55787 28.3858 4.47881C26.0876 2.39975 23.0991 1.24854 20 1.24854C16.9009 1.24854 13.9124 2.39975 11.6142 4.47881C9.31596 6.55787 7.87202 9.41653 7.5625 12.5001H3.75C2.75544 12.5001 1.80161 12.8952 1.09835 13.5984C0.395088 14.3017 0 15.2555 0 16.2501L0 35.0001C0 35.9947 0.395088 36.9485 1.09835 37.6517C1.80161 38.355 2.75544 38.7501 3.75 38.7501H36.25C37.2446 38.7501 38.1984 38.355 38.9016 37.6517C39.6049 36.9485 40 35.9947 40 35.0001V16.2501C40 15.2555 39.6049 14.3017 38.9016 13.5984C38.1984 12.8952 37.2446 12.5001 36.25 12.5001ZM30.8063 20.0001C31.1055 20.0439 31.3786 20.1947 31.5751 20.4246C31.7717 20.6544 31.8782 20.9477 31.875 21.2501C31.875 21.5816 31.7433 21.8996 31.5089 22.134C31.2745 22.3684 30.9565 22.5001 30.625 22.5001H28.9188C29.6497 21.7487 30.2838 20.9089 30.8063 20.0001ZM20 3.7501C22.6522 3.7501 25.1957 4.80367 27.0711 6.67903C28.9464 8.55439 30 11.0979 30 13.7501C30.0037 15.2925 29.6462 16.8144 28.9563 18.1938C28.0495 20.0163 26.6083 21.5186 24.825 22.5001H15.175C13.3917 21.5186 11.9505 20.0163 11.0437 18.1938C10.3538 16.8144 9.99632 15.2925 10 13.7501C10 11.0979 11.0536 8.55439 12.9289 6.67903C14.8043 4.80367 17.3478 3.7501 20 3.7501ZM9.19375 20.0001C9.71232 20.9082 10.3422 21.748 11.0687 22.5001H9.375C9.04348 22.5001 8.72554 22.3684 8.49112 22.134C8.2567 21.8996 8.125 21.5816 8.125 21.2501C8.12307 20.9209 8.25109 20.6042 8.48125 20.3688C8.67315 20.1728 8.9229 20.0436 9.19375 20.0001ZM37.5 35.0001C37.5 35.3316 37.3683 35.6496 37.1339 35.884C36.8995 36.1184 36.5815 36.2501 36.25 36.2501H3.75C3.41848 36.2501 3.10054 36.1184 2.86612 35.884C2.6317 35.6496 2.5 35.3316 2.5 35.0001V16.2501C2.5 15.9186 2.6317 15.6006 2.86612 15.3662C3.10054 15.1318 3.41848 15.0001 3.75 15.0001H7.5625C7.64657 15.9227 7.83528 16.8327 8.125 17.7126C7.39355 17.9712 6.76032 18.4503 6.31257 19.0839C5.86482 19.7174 5.62459 20.4743 5.625 21.2501C5.625 22.2447 6.02009 23.1985 6.72335 23.9018C7.42661 24.605 8.38044 25.0001 9.375 25.0001H30.625C31.5106 25.0014 32.3681 24.6893 33.0456 24.1189C33.7231 23.5486 34.1769 22.7569 34.3266 21.8841C34.4763 21.0112 34.3123 20.1135 33.8636 19.35C33.4149 18.5865 32.7104 18.0065 31.875 17.7126C32.1647 16.8327 32.3534 15.9227 32.4375 15.0001H36.25C36.5815 15.0001 36.8995 15.1318 37.1339 15.3662C37.3683 15.6006 37.5 15.9186 37.5 16.2501V35.0001Z" fill="white"/>
<path d="M33.75 33.75C34.4404 33.75 35 33.1904 35 32.5C35 31.8096 34.4404 31.25 33.75 31.25C33.0596 31.25 32.5 31.8096 32.5 32.5C32.5 33.1904 33.0596 33.75 33.75 33.75Z" fill="white"/>
<path d="M28.75 33.75C29.4404 33.75 30 33.1904 30 32.5C30 31.8096 29.4404 31.25 28.75 31.25C28.0596 31.25 27.5 31.8096 27.5 32.5C27.5 33.1904 28.0596 33.75 28.75 33.75Z" fill="white"/>
</g>
<defs>
<clipPath id="clip0_300_4610">
<rect width="40" height="40" fill="white"/>
</clipPath>
</defs>
</svg>
