<svg width="38" height="40" viewBox="0 0 38 40" fill="none" xmlns="http://www.w3.org/2000/svg">
<path d="M29.6047 9.74359H30.9302C30.9302 9.33557 30.7906 8.94425 30.5419 8.65573C30.2934 8.36722 29.9562 8.20513 29.6047 8.20513V9.74359ZM8.39535 9.74359V8.20513C8.04379 8.20513 7.70661 8.36722 7.45802 8.65573C7.20943 8.94425 7.06977 9.33557 7.06977 9.74359H8.39535ZM28.2791 9.74359V17.9487H30.9302V9.74359H28.2791ZM28.2791 17.9487V34.359H30.9302V17.9487H28.2791ZM26.0698 36.9231H11.9302V40H26.0698V36.9231ZM9.72093 34.359V9.74359H7.06977V34.359H9.72093ZM8.39535 11.2821H29.6047V8.20513H8.39535V11.2821ZM8.39535 3.07692H29.6047V0H8.39535V3.07692ZM2.65116 9.74359C2.65116 6.0617 5.22291 3.07692 8.39535 3.07692V0C3.75873 0 0 4.36236 0 9.74359H2.65116ZM8.39535 16.4103C5.22291 16.4103 2.65116 13.4255 2.65116 9.74359H0C0 15.1248 3.75873 19.4872 8.39535 19.4872V16.4103ZM35.3488 9.74359C35.3488 13.4255 32.777 16.4103 29.6047 16.4103V19.4872C34.2414 19.4872 38 15.1248 38 9.74359H35.3488ZM38 9.74359C38 4.36236 34.2414 0 29.6047 0V3.07692C32.777 3.07692 35.3488 6.0617 35.3488 9.74359H38ZM28.2791 34.359C28.2791 35.7752 27.29 36.9231 26.0698 36.9231V40C28.7542 40 30.9302 37.4745 30.9302 34.359H28.2791ZM11.9302 36.9231C10.7101 36.9231 9.72093 35.7752 9.72093 34.359H7.06977C7.06977 37.4745 9.24588 40 11.9302 40V36.9231Z" fill="white"/>
<path d="M21.5977 22.2894C22.1154 22.8902 22.9546 22.8902 23.4723 22.2894C23.9899 21.6886 23.9899 20.7144 23.4723 20.1138L21.5977 22.2894ZM14.5279 20.1138C14.0102 20.7144 14.0102 21.6886 14.5279 22.2894C15.0456 22.8902 15.8848 22.8902 16.4025 22.2894L14.5279 20.1138ZM17.6745 29.4067C17.6745 30.2564 18.268 30.9452 19.0001 30.9452C19.7322 30.9452 20.3257 30.2564 20.3257 29.4067H17.6745ZM20.3257 19.1503C20.3257 18.3007 19.7322 17.6118 19.0001 17.6118C18.268 17.6118 17.6745 18.3007 17.6745 19.1503H20.3257ZM23.4723 20.1138L21.1871 17.4617L19.3126 19.6373L21.5977 22.2894L23.4723 20.1138ZM16.8131 17.4617L14.5279 20.1138L16.4025 22.2894L18.6876 19.6373L16.8131 17.4617ZM21.1871 17.4617C19.9793 16.0596 18.0209 16.0596 16.8131 17.4617L18.6876 19.6373C18.8603 19.4371 19.1399 19.4371 19.3126 19.6373L21.1871 17.4617ZM20.3257 29.4067V19.1503H17.6745V29.4067H20.3257Z" fill="white"/>
</svg>
