<svg width="34" height="40" viewBox="0 0 34 40" fill="none" stroke="white" stroke-width="1.2" xmlns="http://www.w3.org/2000/svg">
<path d="M23.2907 13.762C22.866 13.687 22.4606 13.9707 22.3856 14.3956C22.0615 16.2315 20.7838 17.8077 19.0509 18.5091C18.6509 18.671 18.4579 19.1264 18.6198 19.5263C18.7428 19.8303 19.0353 20.0146 19.3442 20.0146C19.4418 20.0146 19.5411 19.9963 19.6371 19.9574C21.8647 19.0556 23.5074 17.0285 23.9242 14.667C23.9992 14.2423 23.7156 13.837 23.2907 13.762Z" fill="white"/>
<path d="M32.625 3.125H27.1562V0.78125C27.1562 0.349766 26.8065 0 26.375 0H7.625C7.19352 0 6.84375 0.349766 6.84375 0.78125V3.125H1.375C0.943516 3.125 0.59375 3.47477 0.59375 3.90625V10.3125C0.59375 14.1895 3.74797 17.3438 7.625 17.3438H7.62547C8.56453 19.589 10.2874 21.4274 12.4503 22.5159C11.892 22.9446 11.5312 23.6183 11.5312 24.375C11.5312 25.6673 12.5827 26.7188 13.875 26.7188H14.6126C14.2227 30.2295 11.2379 32.9688 7.625 32.9688H6.0625C5.63102 32.9688 5.28125 33.3185 5.28125 33.75V39.2188C5.28125 39.6502 5.63102 40 6.0625 40H27.9375C28.369 40 28.7188 39.6502 28.7188 39.2188V33.75C28.7188 33.3185 28.369 32.9688 27.9375 32.9688H26.375C22.762 32.9688 19.7773 30.2295 19.3874 26.7188H20.125C21.4173 26.7188 22.4688 25.6673 22.4688 24.375C22.4688 23.6183 22.108 22.9446 21.5498 22.5158C23.7127 21.4274 25.4355 19.5889 26.3746 17.3437H26.3751C30.2521 17.3437 33.4063 14.2295 33.4063 10.4017V3.90625C33.4062 3.47477 33.0565 3.125 32.625 3.125ZM2.15625 10.3125V4.6875H6.84375V13.4375C6.84375 14.2351 6.93648 15.0113 7.11109 15.7563C4.33578 15.4964 2.15625 13.1546 2.15625 10.3125ZM27.1562 38.4375H6.84375V34.5312H27.1562V38.4375ZM21.4397 32.9688H12.5603C14.5707 31.5534 15.9492 29.2989 16.1829 26.7188H17.8172C18.0508 29.2989 19.4293 31.5534 21.4397 32.9688ZM20.125 23.5938C20.5558 23.5938 20.9062 23.9442 20.9062 24.375C20.9062 24.8058 20.5558 25.1562 20.125 25.1562H13.875C13.4442 25.1562 13.0938 24.8058 13.0938 24.375C13.0938 23.9442 13.4442 23.5938 13.875 23.5938H20.125ZM17 22.0312C12.2614 22.0312 8.40625 18.1761 8.40625 13.4375V1.5625H25.5938V13.4375C25.5938 18.1761 21.7386 22.0312 17 22.0312ZM31.8438 10.4018C31.8438 13.1976 29.6641 15.5011 26.8887 15.7568C27.0635 15.0116 27.1562 14.2352 27.1562 13.4375V4.6875H31.8438V10.4018Z" fill="white"/>
<path d="M17 5.9375L18.4485 9.02359L21.6875 9.51844L19.3438 11.9206L19.897 15.3125L17 13.7111L14.103 15.3125L14.6562 11.9206L12.3125 9.51844L15.5515 9.02359L17 5.9375Z" fill="white"/>
</svg>
