<svg width="36" height="36" viewBox="0 0 36 36" fill="none" xmlns="http://www.w3.org/2000/svg">
<g clip-path="url(#clip0_383_3804)">
<path d="M34.9452 2.5983H30.3255C30.3423 2.08661 30.3516 1.5719 30.3516 1.05472C30.3516 0.472175 29.8792 3.8147e-05 29.2969 3.8147e-05H6.70302C6.12075 3.8147e-05 5.64833 0.472175 5.64833 1.05472C5.64833 1.5719 5.65767 2.08661 5.67443 2.5983H1.05469C0.472136 2.5983 0 3.07044 0 3.65299C0 8.37875 1.23514 12.8373 3.47772 16.2076C5.69448 19.5395 8.64732 21.4505 11.8372 21.6365C12.5604 22.4234 13.3247 23.065 14.121 23.5544V28.242H12.3516C10.2126 28.242 8.47264 29.9822 8.47264 32.121V33.8903H8.39766C7.81511 33.8903 7.34297 34.3627 7.34297 34.945C7.34297 35.5276 7.81511 35.9997 8.39766 35.9997H27.6023C28.1848 35.9997 28.657 35.5276 28.657 34.945C28.657 34.3627 28.1848 33.8903 27.6023 33.8903H27.5273V32.121C27.5273 29.9822 25.7873 28.242 23.6483 28.242H21.879V23.5544C22.6752 23.0652 23.4398 22.4234 24.163 21.6365C27.3526 21.4505 30.3055 19.5395 32.5225 16.2076C34.7651 12.8373 35.9999 8.37875 35.9999 3.65299C35.9999 3.07044 35.5278 2.5983 34.9452 2.5983ZM5.23388 15.0392C3.38406 12.2594 2.29724 8.62347 2.13162 4.70767H5.79226C6.17266 9.52132 7.3026 13.9708 9.06865 17.5026C9.3499 18.0651 9.64405 18.5966 9.9492 19.097C8.19496 18.4345 6.57146 17.0497 5.23388 15.0392ZM25.4179 32.121V33.8906H10.582V32.121C10.582 31.1454 11.3758 30.3514 12.3516 30.3514H23.6483C24.6242 30.3514 25.4179 31.1454 25.4179 32.121ZM19.7696 28.242H16.2303V24.4709C16.8101 24.6236 17.4009 24.703 18 24.703C18.599 24.703 19.1898 24.6236 19.7696 24.4709V28.242ZM20.4227 21.9617C20.3752 21.9812 20.3296 22.0048 20.2859 22.0309C19.5405 22.4017 18.7745 22.5937 18 22.5937C17.2257 22.5937 16.46 22.4017 15.7148 22.0314C15.6706 22.0048 15.6247 21.9812 15.5767 21.9611C14.7497 21.5239 13.9496 20.8636 13.1929 19.9959C13.1531 19.9391 13.1083 19.8866 13.0586 19.8388C12.3074 18.947 11.6007 17.85 10.9553 16.5591C9.01701 12.6829 7.89751 7.58608 7.77006 2.10941H28.2299C28.1021 7.58608 26.9826 12.6832 25.0447 16.5591C24.3992 17.85 23.6925 18.947 22.9416 19.8388C22.8916 19.8866 22.8463 19.9394 22.8067 19.9962C22.0501 20.8641 21.2497 21.5241 20.4227 21.9617ZM30.7661 15.0392C29.4285 17.0497 27.805 18.4345 26.0507 19.097C26.3559 18.5966 26.65 18.0651 26.9313 17.5026C28.6973 13.9708 29.827 9.52132 30.2077 4.70767H33.8683C33.7027 8.62347 32.6159 12.2594 30.7661 15.0392Z" fill="white"/>
</g>
<defs>
<clipPath id="clip0_383_3804">
<rect width="36" height="36" fill="white"/>
</clipPath>
</defs>
</svg>
